<?xml version="1.0" encoding="UTF-8" standalone="no"?>
<!DOCTYPE svg PUBLIC "-//W3C//DTD SVG 1.1//EN" "http://www.w3.org/Graphics/SVG/1.1/DTD/svg11.dtd">
<svg width="100%" height="100%" viewBox="0 0 1000 1000" version="1.1" xmlns="http://www.w3.org/2000/svg" xmlns:xlink="http://www.w3.org/1999/xlink" xml:space="preserve" xmlns:serif="http://www.serif.com/" style="fill-rule:evenodd;clip-rule:evenodd;stroke-linejoin:round;stroke-miterlimit:2;">
    <g transform="matrix(1.113,1.113,-1.113,1.113,487.46,-142.209)">
        <path d="M522.808,77C522.808,64.479 512.657,54.328 500.136,54.328L88.136,54.328C75.615,54.328 65.464,64.479 65.464,77L65.464,489C65.464,501.521 75.615,511.672 88.136,511.672L500.136,511.672C512.657,511.672 522.808,501.521 522.808,489L522.808,77ZM477.464,99.672L477.464,466.328C405.503,466.328 182.768,466.328 110.808,466.328C110.808,466.328 110.808,99.672 110.808,99.672L477.464,99.672Z" style="fill:white;"/>
    </g>
    <g transform="matrix(4.27945,-5.27834e-32,5.27834e-32,4.27945,-411.846,121.343)">
        <path d="M262.327,163.542L250.542,175.327L276.785,201.57C280.037,204.822 285.318,204.822 288.57,201.57C291.822,198.318 291.822,193.037 288.57,189.785L262.327,163.542Z" style="fill:white;"/>
    </g>
    <g transform="matrix(0,1.34293,-1.34293,0,1184.75,105.324)">
        <circle cx="185" cy="456" r="44" style="fill:white;"/>
    </g>
    <g transform="matrix(0,1.34293,-1.34293,0,1184.75,251.703)">
        <circle cx="185" cy="456" r="44" style="fill:white;"/>
    </g>
    <g transform="matrix(0,1.34293,-1.34293,0,1039.71,105.324)">
        <circle cx="185" cy="456" r="44" style="fill:white;"/>
    </g>
    <g transform="matrix(0,1.34293,-1.34293,0,1039.71,251.703)">
        <circle cx="185" cy="456" r="44" style="fill:white;"/>
    </g>
    <g transform="matrix(0,1.34293,-1.34293,0,1184.75,398.083)">
        <circle cx="185" cy="456" r="44" style="fill:white;"/>
    </g>
</svg>
