<?xml version="1.0" standalone="no"?>
<!DOCTYPE svg PUBLIC "-//W3C//DTD SVG 20010904//EN"
 "http://www.w3.org/TR/2001/REC-SVG-20010904/DTD/svg10.dtd">
<svg version="1.0" xmlns="http://www.w3.org/2000/svg"
 width="512.000000pt" height="512.000000pt" viewBox="0 0 512.000000 512.000000"
 preserveAspectRatio="xMidYMid meet">

<g transform="translate(0.000000,512.000000) scale(0.100000,-0.100000)"
fill="#000000" stroke="none">
<path d="M3347 3764 c-170 -38 -311 -111 -432 -226 -136 -128 -217 -265 -267
-447 -30 -109 -30 -323 1 -436 88 -330 331 -569 671 -662 50 -14 100 -18 215
-17 133 1 160 4 240 28 96 29 233 97 295 146 l39 31 156 -147 c116 -109 158
-155 162 -177 3 -17 22 -46 42 -66 83 -82 448 -418 471 -434 53 -36 135 -13
164 47 41 86 44 82 -457 545 -29 27 -61 46 -82 50 -26 5 -70 39 -189 149
l-155 144 38 51 c116 157 172 327 172 527 1 120 -11 197 -46 301 -97 283 -332
501 -634 585 -83 23 -318 28 -404 8z m347 -244 c104 -26 207 -83 284 -155 144
-134 214 -292 215 -485 1 -120 -14 -181 -70 -299 -85 -177 -260 -316 -449
-356 -305 -65 -611 83 -744 360 -111 231 -86 489 68 695 85 113 234 212 367
244 89 21 237 20 329 -4z"/>
<path d="M525 3680 c-161 -16 -284 -69 -375 -160 -168 -168 -170 -428 -6 -591
72 -71 135 -108 306 -179 165 -69 201 -90 236 -136 33 -43 37 -115 8 -165 -62
-108 -328 -119 -555 -23 -34 14 -63 23 -65 21 -3 -2 -18 -60 -34 -128 -17 -68
-33 -132 -36 -141 -4 -13 5 -22 33 -34 182 -78 454 -99 646 -50 117 30 182 64
259 134 97 90 146 222 135 362 -8 90 -21 130 -70 202 -68 101 -142 150 -368
243 -70 28 -149 66 -177 84 -142 91 -89 247 91 270 82 10 208 -5 302 -37 l85
-28 11 40 c6 23 23 86 38 141 20 69 25 102 17 107 -6 3 -40 16 -76 27 -110 36
-283 54 -405 41z"/>
<path d="M1320 2875 l0 -785 505 0 506 0 -3 143 -3 142 -322 3 -323 2 0 185 0
185 288 2 287 3 3 143 3 142 -291 0 -290 0 0 165 0 165 305 0 305 0 0 145 0
145 -485 0 -485 0 0 -785z"/>
</g>
</svg>
