<?xml version="1.0" encoding="UTF-8" standalone="no"?><!DOCTYPE svg PUBLIC "-//W3C//DTD SVG 1.1//EN" "http://www.w3.org/Graphics/SVG/1.1/DTD/svg11.dtd"><svg width="100%" height="100%" viewBox="0 0 4167 4167" version="1.1" xmlns="http://www.w3.org/2000/svg" xmlns:xlink="http://www.w3.org/1999/xlink" xml:space="preserve" xmlns:serif="http://www.serif.com/" style="fill-rule:evenodd;clip-rule:evenodd;stroke-linejoin:round;stroke-miterlimit:2;"><circle cx="2083.33" cy="2083.33" r="2078.37" style="fill:#141414;"/><g><g><path d="M3704.04,2167.86c46.686,-46.686 46.686,-122.383 -0,-169.069l-1536.17,-1536.17c-46.686,-46.686 -122.383,-46.686 -169.069,-0l-1536.17,1536.17c-46.686,46.686 -46.686,122.383 -0,169.069l1536.17,1536.17c46.686,46.686 122.383,46.686 169.069,0l1536.17,-1536.17Zm-253.603,-84.535l-1367.11,1367.11c-268.312,-268.312 -1098.8,-1098.8 -1367.11,-1367.11l1367.11,-1367.11l1367.11,1367.11Z" style="fill:#fff;"/></g><g><path d="M2789.9,3158.92l-168.953,168.953l376.227,376.227c46.622,46.621 122.331,46.621 168.953,-0c46.622,-46.622 46.622,-122.332 -0,-168.953l-376.227,-376.227Z" style="fill:#fff;"/></g><g><path d="M2524.22,1592.96c0,109.252 -88.698,197.95 -197.949,197.95c-109.251,-0 -197.95,-88.698 -197.95,-197.95c0,-109.251 88.699,-197.949 197.95,-197.949c109.251,-0 197.949,88.698 197.949,197.949Z" style="fill:#fff;"/></g><g><path d="M2524.22,2083.33c0,109.251 -88.698,197.95 -197.949,197.95c-109.251,-0 -197.95,-88.699 -197.95,-197.95c0,-109.251 88.699,-197.949 197.95,-197.949c109.251,-0 197.949,88.698 197.949,197.949Z" style="fill:#fff;"/></g><g><path d="M2038.34,1592.96c0,109.252 -88.698,197.95 -197.949,197.95c-109.251,-0 -197.95,-88.698 -197.95,-197.95c0,-109.251 88.699,-197.949 197.95,-197.949c109.251,-0 197.949,88.698 197.949,197.949Z" style="fill:#fff;"/></g><g><path d="M2038.34,2083.33c0,109.251 -88.698,197.95 -197.949,197.95c-109.251,-0 -197.95,-88.699 -197.95,-197.95c0,-109.251 88.699,-197.949 197.95,-197.949c109.251,-0 197.949,88.698 197.949,197.949Z" style="fill:#fff;"/></g><g><path d="M2524.22,2573.71c0,109.251 -88.698,197.95 -197.949,197.95c-109.251,-0 -197.95,-88.699 -197.95,-197.95c0,-109.251 88.699,-197.949 197.95,-197.949c109.251,-0 197.949,88.698 197.949,197.949Z" style="fill:#fff;"/></g></g></svg>